<svg width="22" height="23" viewBox="0 0 22 23" fill="none" xmlns="http://www.w3.org/2000/svg">
<path d="M1 11V14.45C1 17.299 1.698 18.455 2.606 19.394C3.546 20.303 4.704 21.002 7.552 21.002H14.448C17.296 21.002 18.454 20.302 19.394 19.394C20.302 18.455 21 17.3 21 14.45V7.552C21 4.703 20.302 3.546 19.394 2.607C18.454 1.7 17.296 1 14.448 1H7.552C4.704 1 3.546 1.699 2.606 2.607C1.698 3.547 1 4.703 1 7.552V11Z" fill="black" stroke="black" stroke-width="2" stroke-linecap="round" stroke-linejoin="round"/>
<path d="M5.54492 11.001H16.4549" stroke="white" stroke-width="2" stroke-linecap="round" stroke-linejoin="round"/>
<path d="M11.0029 5.545V16.455" stroke="white" stroke-width="2" stroke-linecap="round" stroke-linejoin="round"/>
</svg>
