<svg width="22" height="22" viewBox="0 0 22 22" fill="none" xmlns="http://www.w3.org/2000/svg">
<path d="M21 21.9998H14.999C14.7338 21.9998 14.4794 21.8944 14.2919 21.7069C14.1044 21.5194 13.999 21.265 13.999 20.9998V15.5448C14.0063 15.1467 13.9341 14.7511 13.7868 14.3812C13.6395 14.0113 13.4199 13.6744 13.141 13.3903C12.862 13.1062 12.5292 12.8805 12.162 12.7264C11.7949 12.5724 11.4007 12.493 11.0025 12.493C10.6043 12.493 10.2101 12.5724 9.84297 12.7264C9.4758 12.8805 9.14301 13.1062 8.86403 13.3903C8.58506 13.6744 8.3655 14.0113 8.21818 14.3812C8.07086 14.7511 7.99873 15.1467 8.006 15.5448V20.9998C8.006 21.265 7.90064 21.5194 7.71311 21.7069C7.52557 21.8944 7.27122 21.9998 7.006 21.9998H1C0.734784 21.9998 0.48043 21.8944 0.292893 21.7069C0.105357 21.5194 0 21.265 0 20.9998V10.5428C8.99233e-05 10.4074 0.0276051 10.2735 0.0808849 10.1491C0.134165 10.0246 0.212104 9.9123 0.31 9.81881L10.31 0.27581C10.4961 0.0987473 10.7431 0 11 0C11.2569 0 11.5039 0.0987473 11.69 0.27581L21.69 9.81881C21.7879 9.9123 21.8658 10.0246 21.9191 10.1491C21.9724 10.2735 21.9999 10.4074 22 10.5428V20.9998C22 21.265 21.8946 21.5194 21.7071 21.7069C21.5196 21.8944 21.2652 21.9998 21 21.9998Z" fill="black"/>
</svg>
