<svg width="22" height="22" viewBox="0 0 22 22" fill="none" xmlns="http://www.w3.org/2000/svg">
<path d="M11 1.982C13.937 1.982 14.285 1.993 15.445 2.046C16.1424 2.05442 16.8331 2.18262 17.487 2.425C17.9649 2.60135 18.3971 2.88258 18.752 3.248C19.1174 3.60286 19.3987 4.03513 19.575 4.513C19.8174 5.16693 19.9456 5.85765 19.954 6.555C20.007 7.715 20.018 8.063 20.018 11C20.018 13.937 20.007 14.285 19.954 15.445C19.9456 16.1424 19.8174 16.8331 19.575 17.487C19.392 17.9615 19.1117 18.3924 18.752 18.752C18.3924 19.1117 17.9615 19.392 17.487 19.575C16.8331 19.8174 16.1424 19.9456 15.445 19.954C14.285 20.007 13.937 20.018 11 20.018C8.063 20.018 7.715 20.007 6.555 19.954C5.85731 19.9457 5.16624 19.8175 4.512 19.575C4.03449 19.3985 3.60258 19.1173 3.248 18.752C2.88258 18.3971 2.60135 17.9649 2.425 17.487C2.18262 16.8331 2.05442 16.1424 2.046 15.445C1.993 14.285 1.982 13.937 1.982 11C1.982 8.063 1.993 7.715 2.046 6.555C2.05442 5.85765 2.18262 5.16693 2.425 4.513C2.60135 4.03513 2.88258 3.60286 3.248 3.248C3.60286 2.88258 4.03513 2.60135 4.513 2.425C5.16693 2.18262 5.85765 2.05442 6.555 2.046C7.715 1.993 8.063 1.982 11 1.982ZM11 0C8.013 0 7.638 0.013 6.465 0.066C5.55252 0.0842038 4.64972 0.256986 3.795 0.577C3.06067 0.853479 2.39552 1.2869 1.846 1.847C1.28638 2.39633 0.853315 3.06111 0.577 3.795C0.257327 4.64978 0.0848837 5.55257 0.067 6.465C0.012 7.638 0 8.013 0 11C0 13.987 0.013 14.362 0.066 15.535C0.0842038 16.4475 0.256986 17.3503 0.577 18.205C0.853479 18.9393 1.2869 19.6045 1.847 20.154C2.39633 20.7136 3.06111 21.1467 3.795 21.423C4.64978 21.7427 5.55257 21.9151 6.465 21.933C7.638 21.988 8.013 22 11 22C13.987 22 14.362 21.987 15.535 21.934C16.4475 21.9158 17.3503 21.743 18.205 21.423C18.936 21.1404 19.5998 20.7081 20.154 20.154C20.7081 19.5998 21.1404 18.936 21.423 18.205C21.7427 17.3502 21.9151 16.4474 21.933 15.535C21.988 14.362 22 13.987 22 11C22 8.013 21.987 7.638 21.934 6.465C21.9158 5.55252 21.743 4.64972 21.423 3.795C21.1465 3.06067 20.7131 2.39552 20.153 1.846C19.6037 1.28638 18.9389 0.853315 18.205 0.577C17.3502 0.257327 16.4474 0.0848837 15.535 0.067C14.362 0.012 13.987 0 11 0ZM11 5.351C9.88273 5.351 8.79056 5.68231 7.86158 6.30303C6.93261 6.92375 6.20856 7.806 5.781 8.83822C5.35344 9.87044 5.24158 11.0063 5.45954 12.1021C5.67751 13.1979 6.21553 14.2044 7.00555 14.9944C7.79558 15.7845 8.80214 16.3225 9.89793 16.5405C10.9937 16.7584 12.1296 16.6466 13.1618 16.219C14.194 15.7914 15.0763 15.0674 15.697 14.1384C16.3177 13.2094 16.649 12.1173 16.649 11C16.649 9.50179 16.0538 8.06495 14.9944 7.00555C13.9351 5.94616 12.4982 5.351 11 5.351ZM11 14.667C10.2747 14.667 9.56576 14.4519 8.96272 14.049C8.35969 13.6461 7.88968 13.0734 7.61213 12.4033C7.33459 11.7332 7.26197 10.9959 7.40346 10.2846C7.54495 9.57328 7.8942 8.91988 8.40704 8.40704C8.91988 7.8942 9.57328 7.54495 10.2846 7.40346C10.9959 7.26197 11.7332 7.33459 12.4033 7.61213C13.0734 7.88968 13.6461 8.35969 14.049 8.96272C14.4519 9.56576 14.667 10.2747 14.667 11C14.667 11.9725 14.2807 12.9053 13.593 13.593C12.9053 14.2807 11.9725 14.667 11 14.667ZM16.872 3.808C16.6109 3.808 16.3557 3.88542 16.1386 4.03046C15.9216 4.1755 15.7524 4.38166 15.6525 4.62286C15.5526 4.86406 15.5264 5.12946 15.5774 5.38552C15.6283 5.64157 15.754 5.87678 15.9386 6.06138C16.1232 6.24599 16.3584 6.3717 16.6145 6.42264C16.8705 6.47357 17.1359 6.44743 17.3771 6.34752C17.6183 6.24761 17.8245 6.07843 17.9695 5.86135C18.1146 5.64428 18.192 5.38907 18.192 5.128C18.192 4.77791 18.0529 4.44217 17.8054 4.19462C17.5578 3.94707 17.2221 3.808 16.872 3.808Z" fill="black"/>
</svg>
