<svg width="22" height="22" viewBox="0 0 22 22" fill="none" xmlns="http://www.w3.org/2000/svg">
<path d="M10.9998 1.00636C12.2998 0.964609 13.595 1.18461 14.8083 1.6533C16.0216 2.12198 17.1283 2.82977 18.0627 3.73463C18.9971 4.63948 19.74 5.72292 20.2474 6.92058C20.7548 8.11823 21.0163 9.40566 21.0163 10.7064C21.0163 12.0071 20.7548 13.2945 20.2474 14.4921C19.74 15.6898 18.9971 16.7732 18.0627 17.6781C17.1283 18.5829 16.0216 19.2907 14.8083 19.7594C13.595 20.2281 12.2998 20.4481 10.9998 20.4064C10.0219 20.4091 9.04813 20.2799 8.10478 20.0224C7.9278 19.974 7.73957 19.9881 7.57178 20.0624L5.58778 20.9384C5.46782 20.9911 5.33674 21.0136 5.20606 21.0039C5.07537 20.9942 4.94906 20.9526 4.8382 20.8827C4.72734 20.8128 4.63533 20.7168 4.57022 20.603C4.50512 20.4893 4.46891 20.3613 4.46478 20.2304L4.41078 18.4504C4.40628 18.3422 4.38005 18.2361 4.33366 18.1384C4.28727 18.0406 4.22168 17.9532 4.14078 17.8814C3.13696 16.9777 2.33758 15.8702 1.79608 14.6329C1.25459 13.3956 0.983446 12.0569 1.00078 10.7064C0.993181 9.4049 1.24892 8.11536 1.75261 6.9153C2.2563 5.71524 2.99754 4.62947 3.93173 3.72331C4.86592 2.81715 5.97375 2.10932 7.18859 1.6424C8.40343 1.17548 9.70016 0.95913 11.0008 1.00636H10.9998Z" stroke="black" stroke-width="1.5" stroke-miterlimit="10"/>
<path fill-rule="evenodd" clip-rule="evenodd" d="M16.7867 9.13735C16.8702 9.00622 16.9047 8.84977 16.884 8.69567C16.8634 8.54157 16.7889 8.39974 16.6737 8.29526C16.5586 8.19077 16.4102 8.13036 16.2549 8.1247C16.0995 8.11905 15.9471 8.16851 15.8247 8.26435L13.2687 10.3143C13.1597 10.3969 13.0268 10.4417 12.89 10.4421C12.7533 10.4425 12.6201 10.3983 12.5107 10.3163L10.0567 8.47535C9.88258 8.345 9.68339 8.2521 9.47163 8.2025C9.25988 8.15289 9.04015 8.14764 8.82627 8.18709C8.6124 8.22654 8.409 8.30984 8.22888 8.43173C8.04876 8.55362 7.89582 8.71147 7.77968 8.89535L5.21268 12.8753C5.1284 13.0064 5.09326 13.163 5.1135 13.3175C5.13374 13.472 5.20805 13.6143 5.32324 13.7191C5.43844 13.824 5.58706 13.8847 5.74275 13.8904C5.89843 13.8961 6.05111 13.8465 6.17368 13.7503L8.72968 11.7013C8.83878 11.6186 8.97189 11.5736 9.10884 11.5732C9.2458 11.5729 9.37914 11.6171 9.48868 11.6993L11.9407 13.5393C12.1148 13.6699 12.3141 13.7629 12.5259 13.8126C12.7378 13.8623 12.9576 13.8676 13.1716 13.8281C13.3856 13.7887 13.5892 13.7053 13.7694 13.5833C13.9496 13.4614 14.1025 13.3034 14.2187 13.1193L16.7867 9.13735Z" fill="black"/>
</svg>
