<svg width="24" height="21" viewBox="0 0 24 21" fill="none" xmlns="http://www.w3.org/2000/svg">
<path d="M16.2961 2.00309C17.6105 2.07576 18.8429 2.665 19.7248 3.6424C20.6067 4.6198 21.0665 5.90614 21.0041 7.22109C21.0041 10.2931 18.3521 12.1801 15.8071 14.4431C13.2951 16.6861 11.9421 17.9121 11.5041 18.1951C11.0271 17.8861 9.36107 16.3721 7.20107 14.4431C4.64507 12.1711 2.00407 10.2661 2.00407 7.22109C1.94164 5.90614 2.40146 4.6198 3.28333 3.6424C4.1652 2.665 5.39764 2.07576 6.71207 2.00309C7.44022 1.98103 8.16163 2.14828 8.80578 2.48849C9.44994 2.82871 9.99479 3.33026 10.3871 3.94409C11.2271 5.11909 11.3671 5.70709 11.5071 5.70709C11.6471 5.70709 11.7851 5.11909 12.6171 3.94109C13.0071 3.32442 13.5522 2.82089 14.1978 2.48081C14.8434 2.14073 15.5669 1.976 16.2961 2.00309Z" fill="black"/>
<path fill-rule="evenodd" clip-rule="evenodd" d="M16.2961 0.00309361C15.388 -0.0259796 14.4851 0.150177 13.6545 0.518445C12.824 0.886713 12.0872 1.4376 11.4991 2.13009C10.9114 1.43962 10.1762 0.890001 9.34762 0.521846C8.51905 0.15369 7.61835 -0.0235932 6.71207 0.00309361C4.86694 0.0752455 3.12545 0.875077 1.86841 2.22769C0.611371 3.5803 -0.0589338 5.37563 0.00407174 7.22109C0.00407174 10.8311 2.55407 13.0481 5.01907 15.1911C5.30207 15.4371 5.58807 15.6851 5.87207 15.9381L6.89907 16.8561C8.01911 17.9219 9.19334 18.9292 10.4171 19.8741C10.7409 20.0837 11.1183 20.1953 11.5041 20.1953C11.8898 20.1953 12.2673 20.0837 12.5911 19.8741C13.8538 18.9004 15.0641 17.8606 16.2171 16.7591L17.1391 15.9351C17.4321 15.6751 17.7291 15.4161 18.0241 15.1611L18.0254 15.1599C20.3591 13.1352 23.0041 10.8404 23.0041 7.22109C23.0671 5.37563 22.3968 3.5803 21.1397 2.22769C19.8827 0.875077 18.1412 0.0752455 16.2961 0.00309361ZM19.7248 3.6424C18.8429 2.665 17.6105 2.07576 16.2961 2.00309C15.5669 1.976 14.8434 2.14073 14.1978 2.48081C13.5522 2.82089 13.0071 3.32442 12.6171 3.94109C11.7851 5.11909 11.6471 5.70709 11.5071 5.70709C11.3671 5.70709 11.2271 5.11909 10.3871 3.94409C9.99479 3.33026 9.44994 2.82871 8.80578 2.48849C8.16163 2.14828 7.44022 1.98103 6.71207 2.00309C5.39764 2.07576 4.1652 2.665 3.28333 3.6424C2.40146 4.6198 1.94164 5.90614 2.00407 7.22109C2.00407 10.2661 4.64507 12.1711 7.20107 14.4431C9.36107 16.3721 11.0271 17.8861 11.5041 18.1951C11.9421 17.9121 13.2951 16.6861 15.8071 14.4431C18.3521 12.1801 21.0041 10.2931 21.0041 7.22109C21.0665 5.90614 20.6067 4.6198 19.7248 3.6424Z" fill="black"/>
</svg>
