<svg width="22" height="19" viewBox="0 0 22 19" fill="none" xmlns="http://www.w3.org/2000/svg">
<path d="M15.3316 1.88454C16.5682 1.9529 17.7277 2.50727 18.5574 3.42682C19.3871 4.34637 19.8197 5.55658 19.7609 6.79371C19.7609 9.68389 17.2659 11.4592 14.8715 13.5883C12.5082 15.6985 11.2353 16.852 10.8232 17.1182C10.3744 16.8275 8.80703 15.4031 6.77487 13.5883C4.37015 11.4507 1.88546 9.65849 1.88546 6.79371C1.82672 5.55658 2.25933 4.34637 3.089 3.42682C3.91868 2.50727 5.07818 1.9529 6.31481 1.88454C6.99986 1.86378 7.67858 2.02113 8.28461 2.34121C8.89063 2.66129 9.40324 3.13315 9.7723 3.71066C10.5626 4.81612 10.6943 5.36931 10.826 5.36931C10.9577 5.36931 11.0876 4.81612 11.8703 3.70784C12.2373 3.12766 12.7501 2.65393 13.3575 2.33398C13.9648 2.01403 14.6455 1.85905 15.3316 1.88454ZM15.3316 0.00291051C14.4772 -0.024442 13.6278 0.141288 12.8464 0.48776C12.065 0.834232 11.3718 1.35252 10.8185 2.00402C10.2656 1.35441 9.5739 0.837326 8.79437 0.49096C8.01484 0.144594 7.16745 -0.0221968 6.31481 0.00291051C4.57889 0.070792 2.94047 0.823285 1.75783 2.09584C0.575187 3.3684 -0.0554457 5.05747 0.00383075 6.79371C0.00383075 10.19 2.40291 12.2758 4.72201 14.292C4.98826 14.5234 5.25734 14.7568 5.52453 14.9948L6.49074 15.8585C7.54449 16.8611 8.64922 17.8089 9.80053 18.6978C10.1051 18.8951 10.4603 19 10.8232 19C11.1861 19 11.5412 18.8951 11.8459 18.6978C13.0338 17.7817 14.1725 16.8035 15.2572 15.7672L16.1247 14.992C16.4003 14.7473 16.6798 14.5037 16.9573 14.2638C19.1532 12.3586 21.6426 10.1995 21.6426 6.79371C21.7018 5.05747 21.0712 3.3684 19.8886 2.09584C18.7059 0.823285 17.0675 0.070792 15.3316 0.00291051Z" fill="black"/>
</svg>
